# xmcd
#
# Track frame offsets: 
#        150
#        26076
#        46131
#        68019
#        90306
#        114374
#        137979
#        156649
#        183341
#        204819
#        233387
#
# Disc length: 3849 seconds
#
# Revision: 2
# Processed by: cddbd v1.5.2PL0 Copyright (c) Steve Scherf et al.
# Submitted via: ExactAudioCopy v0.99pb4
#
DISCID=850f070b
DTITLE=Keiko Matsui - The Ring
DYEAR=2002
DGENRE=Jazz
TTITLE0=Steps of Maya
TTITLE1=Venus of the Sea
TTITLE2=Moon Circle
TTITLE3=Prism
TTITLE4=The Next Plateau
TTITLE5=Messenger
TTITLE6=Deity in the Silence
TTITLE7=The Ring
TTITLE8=White Owl
TTITLE9=Precious Time
TTITLE10=Enhanced Data Portion
EXTD=YEAR: 2002
EXTT0=
EXTT1=
EXTT2=
EXTT3=
EXTT4=
EXTT5=
EXTT6=
EXTT7=
EXTT8=
EXTT9=
EXTT10=
PLAYORDER=
